<svg width="152" height="38" viewBox="0 0 152 38" fill="none" xmlns="http://www.w3.org/2000/svg">
<path d="M139.744 14.213C140.3 16.2235 141.808 17.2288 144.268 17.2288C145.851 17.2288 147.048 16.6941 147.861 15.6247L151.198 17.5496C149.615 19.8382 147.284 20.9825 144.204 20.9825C141.552 20.9825 139.423 20.1805 137.819 18.5763C136.215 16.9721 135.413 14.9509 135.413 12.5126C135.413 10.0956 136.204 8.08509 137.787 6.48093C139.37 4.85538 141.402 4.0426 143.883 4.0426C146.236 4.0426 148.171 4.85538 149.69 6.48093C151.23 8.10648 152 10.117 152 12.5126C152 13.0473 151.947 13.6141 151.84 14.213H139.744ZM139.68 11.0047H147.861C147.626 9.91383 147.134 9.10106 146.385 8.56634C145.658 8.03162 144.824 7.76426 143.883 7.76426C142.771 7.76426 141.851 8.05301 141.124 8.6305C140.397 9.18661 139.915 9.978 139.68 11.0047Z" fill="#0052B4"/>
<path fill-rule="evenodd" clip-rule="evenodd" d="M117.653 4.07613H132.672V8.54988H132.672V4.07629H128.198V8.54988H122.127V20.5332H117.653V4.07618H117.653V4.07613ZM128.198 8.54988V20.5333H132.672V8.54988H128.198Z" fill="#0052B4"/>
<path d="M112.349 18.5442C110.702 20.1698 108.691 20.9825 106.317 20.9825C103.943 20.9825 101.933 20.1698 100.286 18.5442C98.6601 16.8973 97.8473 14.8867 97.8473 12.5126C97.8473 10.1384 98.6601 8.13856 100.286 6.51301C101.933 4.86607 103.943 4.0426 106.317 4.0426C108.691 4.0426 110.702 4.86607 112.349 6.51301C113.996 8.13856 114.819 10.1384 114.819 12.5126C114.819 14.8867 113.996 16.8973 112.349 18.5442ZM103.205 15.6888C104.039 16.523 105.077 16.9401 106.317 16.9401C107.558 16.9401 108.595 16.523 109.429 15.6888C110.264 14.8547 110.681 13.7959 110.681 12.5126C110.681 11.2292 110.264 10.1705 109.429 9.33634C108.595 8.50217 107.558 8.08509 106.317 8.08509C105.077 8.08509 104.039 8.50217 103.205 9.33634C102.392 10.1705 101.986 11.2292 101.986 12.5126C101.986 13.7959 102.392 14.8547 103.205 15.6888Z" fill="#0052B4"/>
<path d="M89.5259 16.6511H96.6483V20.5332H83.9755V17.774L90.745 8.37365H84.2963V4.49158H96.3275V7.25073L89.5259 16.6511Z" fill="#0052B4"/>
<path d="M81.664 8.46998H78.0386V15.1433C78.0386 15.6994 78.1776 16.1058 78.4557 16.3624C78.7338 16.6191 79.1401 16.7688 79.6749 16.8116C80.2096 16.833 80.8726 16.8223 81.664 16.7795V20.5333C78.8193 20.8541 76.8088 20.5867 75.6324 19.7312C74.4774 18.8756 73.8999 17.3463 73.8999 15.1433V8.46998H71.1086V4.49165H73.8999V1.25125L78.0386 0V4.49165H81.664V8.46998Z" fill="#0052B4"/>
<path fill-rule="evenodd" clip-rule="evenodd" d="M58.381 4.07617H53.9072V8.54993V20.5332H58.381V8.54993H64.4525V20.5332H68.9263V8.54993H64.4525V4.07617H58.381Z" fill="#0052B4"/>
<path d="M38.8254 14.213C39.3815 16.2235 40.8894 17.2288 43.3491 17.2288C44.9319 17.2288 46.1297 16.6941 46.9424 15.6247L50.2791 17.5496C48.6963 19.8382 46.3649 20.9825 43.2849 20.9825C40.6327 20.9825 38.5045 20.1805 36.9004 18.5763C35.2962 16.9721 34.4941 14.9509 34.4941 12.5126C34.4941 10.0956 35.2855 8.08509 36.8683 6.48093C38.4511 4.85538 40.483 4.0426 42.9641 4.0426C45.3169 4.0426 47.2526 4.85538 48.7712 6.48093C50.3112 8.10648 51.0812 10.117 51.0812 12.5126C51.0812 13.0473 51.0277 13.6141 50.9208 14.213H38.8254ZM38.7612 11.0047H46.9424C46.7072 9.91383 46.2152 9.10106 45.4666 8.56634C44.7394 8.03162 43.9052 7.76426 42.9641 7.76426C41.8519 7.76426 40.9322 8.05301 40.205 8.6305C39.4777 9.18661 38.9965 9.978 38.7612 11.0047Z" fill="#0052B4"/>
<path d="M29.4056 4.49158H33.9615L27.8656 20.5332H23.1494L17.0536 4.49158H21.6094L25.4915 15.7207L29.4056 4.49158Z" fill="#0052B4"/>
<path d="M4.33124 14.213C4.88735 16.2235 6.39526 17.2288 8.85497 17.2288C10.4377 17.2288 11.6355 16.6941 12.4483 15.6247L15.785 17.5496C14.2022 19.8382 11.8708 20.9825 8.79081 20.9825C6.13859 20.9825 4.0104 20.1805 2.40624 18.5763C0.802081 16.9721 0 14.9509 0 12.5126C0 10.0956 0.791386 8.08509 2.37416 6.48093C3.95693 4.85538 5.98887 4.0426 8.46997 4.0426C10.8227 4.0426 12.7584 4.85538 14.277 6.48093C15.817 8.10648 16.587 10.117 16.587 12.5126C16.587 13.0473 16.5336 13.6141 16.4266 14.213H4.33124ZM4.26707 11.0047H12.4483C12.213 9.91383 11.7211 9.10106 10.9725 8.56634C10.2452 8.03162 9.41108 7.76426 8.46997 7.76426C7.35775 7.76426 6.43804 8.05301 5.71082 8.6305C4.9836 9.18661 4.50235 9.978 4.26707 11.0047Z" fill="#0052B4"/>
<rect x="129.542" y="27.1761" width="22.3312" height="9.78081" rx="1.1376" stroke="#0052B4" stroke-width="0.252801"/>
<path d="M134.55 30.988C134.659 30.7574 134.827 30.5693 135.053 30.4237C135.284 30.2781 135.555 30.2053 135.866 30.2053C136.169 30.2053 136.44 30.2761 136.679 30.4176C136.918 30.5552 137.104 30.7534 137.237 31.0122C137.375 31.2671 137.444 31.5643 137.444 31.9041C137.444 32.2439 137.375 32.5432 137.237 32.8021C137.104 33.0609 136.916 33.2611 136.673 33.4027C136.434 33.5443 136.165 33.6151 135.866 33.6151C135.551 33.6151 135.278 33.5443 135.047 33.4027C134.821 33.2571 134.655 33.069 134.55 32.8385V33.5665H134.131V29.0768H134.55V30.988ZM137.013 31.9041C137.013 31.6291 136.958 31.3924 136.849 31.1942C136.744 30.992 136.598 30.8383 136.412 30.7331C136.226 30.628 136.016 30.5754 135.781 30.5754C135.555 30.5754 135.346 30.63 135.156 30.7392C134.97 30.8484 134.823 31.0041 134.713 31.2064C134.604 31.4086 134.55 31.6432 134.55 31.9102C134.55 32.1771 134.604 32.4117 134.713 32.614C134.823 32.8162 134.97 32.9719 135.156 33.0812C135.346 33.1904 135.555 33.245 135.781 33.245C136.016 33.245 136.226 33.1924 136.412 33.0872C136.598 32.978 136.744 32.8223 136.849 32.62C136.958 32.4138 137.013 32.1751 137.013 31.9041ZM141.222 31.7403C141.222 31.8859 141.218 31.9971 141.21 32.074H138.462C138.474 32.3248 138.535 32.5391 138.644 32.7171C138.753 32.8951 138.897 33.0306 139.074 33.1236C139.252 33.2126 139.447 33.2571 139.657 33.2571C139.932 33.2571 140.163 33.1904 140.349 33.0569C140.539 32.9234 140.664 32.7434 140.725 32.5169H141.174C141.093 32.8405 140.919 33.1054 140.652 33.3117C140.389 33.5139 140.057 33.6151 139.657 33.6151C139.345 33.6151 139.066 33.5463 138.82 33.4088C138.573 33.2672 138.379 33.069 138.237 32.8142C138.1 32.5553 138.031 32.254 138.031 31.9102C138.031 31.5664 138.1 31.265 138.237 31.0062C138.375 30.7473 138.567 30.5491 138.814 30.4116C139.06 30.2741 139.341 30.2053 139.657 30.2053C139.972 30.2053 140.247 30.2741 140.482 30.4116C140.721 30.5491 140.903 30.7352 141.028 30.9698C141.158 31.2003 141.222 31.4572 141.222 31.7403ZM140.792 31.7282C140.796 31.4814 140.745 31.2711 140.64 31.0972C140.539 30.9232 140.399 30.7918 140.221 30.7028C140.043 30.6138 139.849 30.5693 139.639 30.5693C139.323 30.5693 139.054 30.6704 138.832 30.8727C138.609 31.0749 138.486 31.3601 138.462 31.7282H140.792ZM142.551 30.6118V32.6686C142.551 32.8708 142.59 33.0104 142.667 33.0872C142.744 33.1641 142.879 33.2025 143.073 33.2025H143.462V33.5665H143.006C142.707 33.5665 142.485 33.4978 142.339 33.3602C142.193 33.2187 142.121 32.9881 142.121 32.6686V30.6118H141.66V30.2538H142.121V29.4226H142.551V30.2538H143.462V30.6118H142.551ZM143.968 31.9041C143.968 31.5643 144.035 31.2671 144.168 31.0122C144.306 30.7534 144.494 30.5552 144.732 30.4176C144.975 30.2761 145.248 30.2053 145.551 30.2053C145.867 30.2053 146.138 30.2781 146.364 30.4237C146.595 30.5693 146.761 30.7554 146.862 30.9819V30.2538H147.287V33.5665H146.862V32.8324C146.757 33.0589 146.589 33.247 146.358 33.3966C146.132 33.5423 145.861 33.6151 145.545 33.6151C145.246 33.6151 144.975 33.5443 144.732 33.4027C144.494 33.2611 144.306 33.0609 144.168 32.8021C144.035 32.5432 143.968 32.2439 143.968 31.9041ZM146.862 31.9102C146.862 31.6432 146.807 31.4086 146.698 31.2064C146.589 31.0041 146.439 30.8484 146.249 30.7392C146.063 30.63 145.857 30.5754 145.63 30.5754C145.396 30.5754 145.185 30.628 144.999 30.7331C144.813 30.8383 144.666 30.992 144.556 31.1942C144.451 31.3924 144.399 31.6291 144.399 31.9041C144.399 32.1751 144.451 32.4138 144.556 32.62C144.666 32.8223 144.813 32.978 144.999 33.0872C145.185 33.1924 145.396 33.245 145.63 33.245C145.857 33.245 146.063 33.1904 146.249 33.0812C146.439 32.9719 146.589 32.8162 146.698 32.614C146.807 32.4117 146.862 32.1771 146.862 31.9102Z" fill="#0052B4"/>
</svg>
